<svg id="line" height="512" viewBox="0 0 64 64" width="512" xmlns="http://www.w3.org/2000/svg"><g fill="#c4a2fc"><path d="m38.543 48.829a2.138 2.138 0 0 0 -1.627-2.505v4.551a2.7 2.7 0 0 0 1.627-2.046z"/><path d="m54.543 48.829a2.138 2.138 0 0 0 -1.627-2.505v4.551a2.7 2.7 0 0 0 1.627-2.046z"/><path d="m49.846 41.437a1.468 1.468 0 0 0 .391 1.426 5.463 5.463 0 0 0 .679.44v-3.265a1.936 1.936 0 0 0 -1.07 1.399z"/><path d="m60 13h-32a3 3 0 0 0 -3 3v44a3 3 0 0 0 3 3h32a3 3 0 0 0 3-3v-44a3 3 0 0 0 -3-3zm-20 46h-8a1 1 0 0 1 0-2h8a1 1 0 0 1 0 2zm-7-14.563a3.422 3.422 0 0 1 -1.122-3.371 3.863 3.863 0 0 1 3.035-3.137v-.929a1 1 0 0 1 2 0v.851a4.9 4.9 0 0 1 2.393 1.082 1 1 0 0 1 -1.346 1.477 2.853 2.853 0 0 0 -1.044-.51v4.293c.263.1.528.2.786.288a4.09 4.09 0 0 1 2.814 4.68 4.653 4.653 0 0 1 -3.6 3.8v1.039a1 1 0 0 1 -2 0v-.956a5.687 5.687 0 0 1 -3.042-1.08 1 1 0 1 1 1.1-1.673 3.732 3.732 0 0 0 1.947.75v-5.506a9.066 9.066 0 0 1 -1.921-1.098zm7-10.437h-8a1 1 0 0 1 0-2h8a1 1 0 0 1 0 2zm-1.707-8.707a1 1 0 0 1 1.414 1.414l-3 3a1 1 0 0 1 -1.414 0l-3-3a1 1 0 0 1 1.414-1.414l1.293 1.293v-4.586a1 1 0 0 1 2 0v4.586zm17.707 33.707h-8a1 1 0 0 1 0-2h8a1 1 0 0 1 0 2zm-7-14.563a3.422 3.422 0 0 1 -1.122-3.371 3.866 3.866 0 0 1 3.035-3.137v-.929a1 1 0 0 1 2 0v.851a4.891 4.891 0 0 1 2.393 1.082 1 1 0 0 1 -1.346 1.477 2.874 2.874 0 0 0 -1.044-.51v4.293c.263.1.528.2.786.288a4.09 4.09 0 0 1 2.814 4.68 4.653 4.653 0 0 1 -3.6 3.8v1.039a1 1 0 0 1 -2 0v-.956a5.687 5.687 0 0 1 -3.042-1.08 1 1 0 1 1 1.095-1.673 3.721 3.721 0 0 0 1.947.749v-5.505a9.066 9.066 0 0 1 -1.916-1.098zm7-10.437h-8a1 1 0 0 1 0-2h8a1 1 0 0 1 0 2zm-6.293-8.293a1 1 0 0 1 -1.414-1.414l3-3a1 1 0 0 1 1.414 0l3 3a1 1 0 0 1 -1.414 1.414l-1.293-1.293v4.586a1 1 0 0 1 -2 0v-4.586zm8.293-6.707h-28a1 1 0 0 1 0-2h28a1 1 0 0 1 0 2z"/><path d="m33.846 41.437a1.468 1.468 0 0 0 .391 1.426 5.463 5.463 0 0 0 .679.44v-3.265a1.936 1.936 0 0 0 -1.07 1.399z"/></g><path d="m43 1h-36a6.006 6.006 0 0 0 -6 6v41a3 3 0 0 0 3 3h34a3 3 0 0 0 3-3v-37h5a3 3 0 0 0 3-3v-1a6.006 6.006 0 0 0 -6-6zm-4 47a1 1 0 0 1 -1 1h-34a1 1 0 0 1 -1-1v-41a4 4 0 0 1 8 0v1a3 3 0 0 0 3 3h25zm8-40a1 1 0 0 1 -1 1h-32a1 1 0 0 1 -1-1v-1a5.978 5.978 0 0 0 -1.532-4h31.532a4 4 0 0 1 4 4z" fill="#151a6a"/><path d="m8 15v11a1 1 0 0 0 1 1h9a1 1 0 0 0 1-1v-11a1 1 0 0 0 -1-1h-9a1 1 0 0 0 -1 1zm2 1h7v9h-7z" fill="#151a6a"/><path d="m23 19h10a1 1 0 0 0 0-2h-10a1 1 0 0 0 0 2z" fill="#151a6a"/><path d="m23 24h10a1 1 0 0 0 0-2h-10a1 1 0 0 0 0 2z" fill="#151a6a"/><path d="m18.293 34.293-8.293 8.293v-11.586a1 1 0 0 0 -2 0v14a1 1 0 0 0 1 1h24a1 1 0 0 0 0-2h-21.586l7.586-7.586 4.293 4.293a1 1 0 0 0 1.414 0l9-9a1 1 0 0 0 -1.414-1.414l-8.293 8.293-4.293-4.293a1 1 0 0 0 -1.414 0z" fill="#151a6a"/></svg>