<svg id="line" height="512" viewBox="0 0 64 64" width="512" xmlns="http://www.w3.org/2000/svg"><g fill="#c4a2fc"><path d="m19 15h42a1 1 0 0 0 0-2h-42a1 1 0 0 0 0 2z"/><path d="m50 34h4v11h-4z"/><path d="m38 37h4v8h-4z"/><path d="m26 40h4v5h-4z"/><path d="m61 17h-42a1 1 0 0 0 -1 1v30a3 3 0 0 0 3 3h16v7h-3a3 3 0 0 0 -3 3v1a1 1 0 0 0 1 1h16a1 1 0 0 0 1-1v-1a3 3 0 0 0 -3-3h-3v-7h16a3 3 0 0 0 3-3v-30a1 1 0 0 0 -1-1zm-29 29a1 1 0 0 1 -1 1h-6a1 1 0 0 1 -1-1v-7a1 1 0 0 1 1-1h6a1 1 0 0 1 1 1zm-.293-14.293a1 1 0 0 1 -1.414 0l-1.293-1.293v4.586a1 1 0 0 1 -2 0v-4.586l-1.293 1.293a1 1 0 0 1 -1.414-1.414l3-3a1 1 0 0 1 1.416 0l3 3a1 1 0 0 1 -.002 1.414zm9.293 26.293h-2v-7h2zm3-12a1 1 0 0 1 -1 1h-6a1 1 0 0 1 -1-1v-10a1 1 0 0 1 1-1h6a1 1 0 0 1 1 1zm-.293-17.293a1 1 0 0 1 -1.414 0l-1.293-1.293v4.586a1 1 0 0 1 -2 0v-4.586l-1.293 1.293a1 1 0 0 1 -1.414-1.414l3-3a1 1 0 0 1 1.416 0l3 3a1 1 0 0 1 -.002 1.414zm12.293 17.293a1 1 0 0 1 -1 1h-6a1 1 0 0 1 -1-1v-13a1 1 0 0 1 1-1h6a1 1 0 0 1 1 1zm-.293-20.293a1 1 0 0 1 -1.414 0l-1.293-1.293v4.586a1 1 0 0 1 -2 0v-4.586l-1.293 1.293a1 1 0 0 1 -1.414-1.414l3-3a1 1 0 0 1 1.416 0l3 3a1 1 0 0 1 -.002 1.414z"/></g><path d="m47 33h-6v-5a3 3 0 0 0 -3-3h-11v-4h9a3 3 0 0 0 3-3v-14a3 3 0 0 0 -3-3h-20a3 3 0 0 0 -3 3v14a3 3 0 0 0 3 3h9v4h-11a3 3 0 0 0 -3 3v5h-6a3 3 0 0 0 -3 3v12a3 3 0 0 0 3 3h16a3 3 0 0 0 3-3v-12a3 3 0 0 0 -3-3h-8v-5a1 1 0 0 1 1-1h24a1 1 0 0 1 1 1v5h-8a3 3 0 0 0 -3 3v12a3 3 0 0 0 3 3h16a3 3 0 0 0 3-3v-12a3 3 0 0 0 -3-3zm-26 2a1 1 0 0 1 1 1v12a1 1 0 0 1 -1 1h-16a1 1 0 0 1 -1-1v-12a1 1 0 0 1 1-1zm-5-16a1 1 0 0 1 -1-1v-14a1 1 0 0 1 1-1h20a1 1 0 0 1 1 1v14a1 1 0 0 1 -1 1zm32 29a1 1 0 0 1 -1 1h-16a1 1 0 0 1 -1-1v-12a1 1 0 0 1 1-1h16a1 1 0 0 1 1 1z" fill="#151a6a"/><path d="m33 7h-14a1 1 0 0 0 0 2h14a1 1 0 0 0 0-2z" fill="#151a6a"/><path d="m33 13h-14a1 1 0 0 0 0 2h14a1 1 0 0 0 0-2z" fill="#151a6a"/><path d="m8 43h10a1 1 0 0 0 0-2h-10a1 1 0 0 0 0 2z" fill="#151a6a"/><path d="m44 41h-10a1 1 0 0 0 0 2h10a1 1 0 0 0 0-2z" fill="#151a6a"/></svg>