<?xml version="1.0" encoding="utf-8"?>
<!-- Generator: Adobe Illustrator 24.2.3, SVG Export Plug-In . SVG Version: 6.00 Build 0)  -->
<svg version="1.1" id="line" xmlns="http://www.w3.org/2000/svg" xmlns:xlink="http://www.w3.org/1999/xlink" x="0px" y="0px"
	 viewBox="0 0 410.4 439.9" style="enable-background:new 0 0 410.4 439.9;" xml:space="preserve">
<style type="text/css">
	.st0{fill:#BEE2FF;}
	.st1{fill:#151A6A;}
</style>
<path class="st0" d="M258.4,39.9c-53,0.1-95.9,43-96,96v32c0,53,43,96,96,96s96-43,96-96v-32C354.3,82.9,311.4,40,258.4,39.9z"/>
<path class="st0" d="M375.6,275.9L341,252.2c-6-4.1-10.2,1.2-14.9,4.7c-23.2,17.1-41,40.6-51.4,67.5l-16.3,44.3l-16.3-44.3
	c-10.4-26.9-28.2-50.3-51.4-67.5c-4.7-3.6-9-8.8-14.9-4.7l-34.6,23.6c-21.8,14.9-34.8,39.6-34.8,66v74c0,13.3,10.7,24,24,24h32v-72
	c0-4.4,3.6-8,8-8c4.4,0,8,3.6,8,8v72h160v-72c0-4.4,3.6-8,8-8s8,3.6,8,8v72h32c13.3,0,24-10.7,24-24v-74
	C410.4,315.5,397.4,290.8,375.6,275.9L375.6,275.9z"/>
<path class="st1" d="M255.3,226.4l-39.4-27c20.4-18.1,32.1-44.1,32.1-71.4V96c0-53-43-96-96-96S56,43,56,96v32
	c0,27.3,11.7,53.3,32.1,71.5l-39.4,26.9C18.2,247.3,0,281.9,0,318.8V368c0,13.3,10.7,24,24,24h256c13.3,0,24-10.7,24-24v-49.2
	C304,281.9,285.8,247.3,255.3,226.4z M152,16c31.9,0,60.7,19,73.4,48.2c-26.2,0.6-52.1,6.1-76.2,16.3C124.8,90.9,98.5,96.1,72,96
	C72.1,51.8,107.9,16,152,16z M72,128v-16c28.4,0.2,56.6-5.4,82.8-16.5c23.9-10.2,49.6-15.4,75.6-15.4c1.1,5.2,1.6,10.6,1.6,15.9v32
	c0,44.2-35.8,80-80,80S72,172.2,72,128z M153.9,222.5c17.7,0.3,42.2-9,48.4-12.9l43.9,30c26.1,17.9,41.8,47.5,41.8,79.2V368
	c0,4.4-3.6,8-8,8h-32v-48c0-4.4-3.6-8-8-8s-8,3.6-8,8v48H72v-48c0-4.4-3.6-8-8-8s-8,3.6-8,8v48H24c-4.4,0-8-3.6-8-8v-49.2
	c0-31.7,15.6-61.3,41.8-79.2l43.9-30C109.6,214.5,144.1,223.9,153.9,222.5"/>
</svg>
