<svg id="line" height="512" viewBox="0 0 64 64" width="512" xmlns="http://www.w3.org/2000/svg"><g fill="#c4a2fc"><path d="m26.5 39h4v4h-4z"/><path d="m50.5 39h4v16h-4z"/><path d="m38.5 39h4v4h-4z"/><path d="m38.5 51h4v4h-4z"/><path d="m26.5 31h28v-9h-28zm17-4h8a1 1 0 0 1 0 2h-8a1 1 0 0 1 0-2z"/><path d="m59.5 14h-38a3 3 0 0 0 -3 3v43a3 3 0 0 0 3 3h38a3 3 0 0 0 3-3v-43a3 3 0 0 0 -3-3zm-27 42a1 1 0 0 1 -1 1h-6a1 1 0 0 1 -1-1v-6a1 1 0 0 1 1-1h6a1 1 0 0 1 1 1zm0-12a1 1 0 0 1 -1 1h-6a1 1 0 0 1 -1-1v-6a1 1 0 0 1 1-1h6a1 1 0 0 1 1 1zm12 12a1 1 0 0 1 -1 1h-6a1 1 0 0 1 -1-1v-6a1 1 0 0 1 1-1h6a1 1 0 0 1 1 1zm0-12a1 1 0 0 1 -1 1h-6a1 1 0 0 1 -1-1v-6a1 1 0 0 1 1-1h6a1 1 0 0 1 1 1zm12 12a1 1 0 0 1 -1 1h-6a1 1 0 0 1 -1-1v-18a1 1 0 0 1 1-1h6a1 1 0 0 1 1 1zm0-24a1 1 0 0 1 -1 1h-30a1 1 0 0 1 -1-1v-11a1 1 0 0 1 1-1h30a1 1 0 0 1 1 1z"/><path d="m26.5 51h4v4h-4z"/></g><path d="m37.5 8h-5v-1a1 1 0 0 0 -1-1h-4.583a6 6 0 0 0 -11.834 0h-4.583a1 1 0 0 0 -1 1v1h-5a3 3 0 0 0 -3 3v37a3 3 0 0 0 3 3h33a3 3 0 0 0 3-3v-37a3 3 0 0 0 -3-3zm-26 0h4.5a1 1 0 0 0 1-1 4 4 0 0 1 8 0 1 1 0 0 0 1 1h4.5v2h-19zm27 40a1 1 0 0 1 -1 1h-33a1 1 0 0 1 -1-1v-37a1 1 0 0 1 1-1h5v1a1 1 0 0 0 1 1h21a1 1 0 0 0 1-1v-1h5a1 1 0 0 1 1 1z" fill="#151a6a"/><path d="m35.5 14h-29a1 1 0 0 0 -1 1v21.211a.939.939 0 0 0 .1.413 1.033 1.033 0 0 0 .06.131l6.357 9.789a1.044 1.044 0 0 0 .833.456h22.65a1 1 0 0 0 1-1v-31a1 1 0 0 0 -1-1zm-22.807 29.911-3.516-5.411 4.946 2.2zm21.807 1.089h-20.1l1.959-4.4a1 1 0 0 0 -.506-1.32l-8.353-3.719v-19.561h27z" fill="#151a6a"/><path d="m11.5 27h6a1 1 0 0 0 1-1v-6a1 1 0 0 0 -1-1h-6a1 1 0 0 0 -1 1v6a1 1 0 0 0 1 1zm1-6h4v4h-4z" fill="#151a6a"/><path d="m11.5 33h19a1 1 0 0 0 0-2h-19a1 1 0 0 0 0 2z" fill="#151a6a"/><path d="m30.5 37h-11a1 1 0 0 0 0 2h11a1 1 0 0 0 0-2z" fill="#151a6a"/><path d="m21.5 27h9a1 1 0 0 0 0-2h-9a1 1 0 0 0 0 2z" fill="#151a6a"/></svg>