<svg id="line" height="512" viewBox="0 0 64 64" width="512" xmlns="http://www.w3.org/2000/svg"><path d="m62 18.5h-7v-7a1 1 0 0 0 -1.707-.707l-6 6a1 1 0 0 0 -.293.707v7.586l-2.313 2.314a19.248 19.248 0 0 1 1.413 1.412l2.313-2.312h7.587a1 1 0 0 0 .707-.293l6-6a1 1 0 0 0 -.707-1.707z" fill="#c4a2fc"/><path d="m37.6 37.316a7.028 7.028 0 1 1 -1.417-1.416l2.849-2.85a11.021 11.021 0 1 0 1.414 1.414z" fill="#c4a2fc"/><path d="m34.752 37.333a5.015 5.015 0 1 0 1.414 1.414l-3.46 3.46a1 1 0 0 1 -1.414-1.414z" fill="#c4a2fc"/><path d="m45 41.5a13.039 13.039 0 1 1 -4.553-9.861l4.24-4.239a19.074 19.074 0 1 0 1.413 1.412l-4.24 4.241a12.933 12.933 0 0 1 3.14 8.447z" fill="#c4a2fc"/><g fill="#151a6a"><path d="m32.4 3.7a29.186 29.186 0 0 1 -17.4 5.8h-9a5.006 5.006 0 0 0 -5 5v8a5.006 5.006 0 0 0 5 5h.245l3.379 11.825a3.013 3.013 0 0 0 2.885 2.175h.513a4 4 0 0 0 3.847-5.1l-2.543-8.9h.674a29.186 29.186 0 0 1 17.4 5.8 1 1 0 0 0 1.6-.8v-28a1 1 0 0 0 -1.6-.8zm-17.455 33.252a2 2 0 0 1 -1.923 2.548h-.513a1 1 0 0 1 -.961-.725l-3.222-11.275h3.92zm2.055-11.377c-.665-.043-1.332-.074-2-.074h-9a3 3 0 0 1 -3-3v-8a3 3 0 0 1 3-3h9c.668 0 1.335-.03 2-.074zm15 5a31.279 31.279 0 0 0 -13-4.8v-.01-14.541a31.3 31.3 0 0 0 13-4.8z"/><path d="m13 15.5h-6a1 1 0 0 0 0 2h6a1 1 0 0 0 0-2z"/><path d="m13 19.5h-6a1 1 0 0 0 0 2h6a1 1 0 1 0 0-2z"/><path d="m38 14.5a1 1 0 0 0 -1 1v6a1 1 0 1 0 2 0v-6a1 1 0 0 0 -1-1z"/><path d="m43 12.5a1 1 0 0 0 -1 1v10a1 1 0 1 0 2 0v-10a1 1 0 0 0 -1-1z"/><path d="m48 10.5a1 1 0 0 0 -1 1v14a1 1 0 1 0 2 0v-14a1 1 0 0 0 -1-1z"/></g></svg>