<svg id="line" height="512" viewBox="0 0 64 64" width="512" xmlns="http://www.w3.org/2000/svg"><g fill="#c4a2fc"><path d="m61 55h-9.575a22.181 22.181 0 0 1 -5.8 6h15.375a2 2 0 0 0 2-2v-2a2 2 0 0 0 -2-2z"/><path d="m61 47h-6.371a21.838 21.838 0 0 1 -2.043 6h8.414a2 2 0 0 0 2-2v-2a2 2 0 0 0 -2-2z"/><path d="m61 23h-18.852a22.124 22.124 0 0 1 7.81 6h11.042a2 2 0 0 0 2-2v-2a2 2 0 0 0 -2-2z"/><path d="m61 31h-9.575a21.893 21.893 0 0 1 2.736 6h6.839a2 2 0 0 0 2-2v-2a2 2 0 0 0 -2-2z"/><path d="m61 39h-6.371a22.067 22.067 0 0 1 .371 4c0 .675-.035 1.341-.095 2h6.095a2 2 0 0 0 2-2v-2a2 2 0 0 0 -2-2z"/><path d="m28.816 36.187a3.018 3.018 0 0 0 .881 2.978 11.406 11.406 0 0 0 2.165 1.283v-7.355a3.747 3.747 0 0 0 -3.046 3.094z"/><path d="m34.92 43.817c-.372-.131-.721-.258-1.058-.383v9.283a5.03 5.03 0 0 0 3.965-4.127 4.141 4.141 0 0 0 -2.907-4.773z"/><path d="m33 23a20 20 0 1 0 20 20 20.023 20.023 0 0 0 -20-20zm6.8 25.921a7 7 0 0 1 -5.938 5.821v2.258a1 1 0 1 1 -2 0v-2.19a8.8 8.8 0 0 1 -5.3-1.705 1 1 0 0 1 1.095-1.673 6.886 6.886 0 0 0 4.209 1.377v-10.17a15.1 15.1 0 0 1 -3.4-1.9 4.992 4.992 0 0 1 -1.611-4.923 5.761 5.761 0 0 1 5.01-4.755v-2.061a1 1 0 0 1 2 0v1.973a7.453 7.453 0 0 1 4.149 1.686 1 1 0 0 1 -1.351 1.475 5.374 5.374 0 0 0 -2.8-1.152v8.312c.525.2 1.089.414 1.724.639a6.11 6.11 0 0 1 4.213 6.988z"/></g><path d="m46 1h-42a3 3 0 0 0 -3 3v36a3 3 0 0 0 3 3h42a3 3 0 0 0 3-3v-36a3 3 0 0 0 -3-3zm1 39a1 1 0 0 1 -1 1h-42a1 1 0 0 1 -1-1v-2h44zm0-4h-44v-3h44zm0-5h-44v-27a1 1 0 0 1 1-1h42a1 1 0 0 1 1 1z" fill="#151a6a"/><path d="m10 19h-3a1 1 0 0 0 0 2h3a1 1 0 0 0 0-2z" fill="#151a6a"/><path d="m10 13h-3a1 1 0 0 0 0 2h3a1 1 0 0 0 0-2z" fill="#151a6a"/><path d="m43 19h-3a1 1 0 0 0 0 2h3a1 1 0 0 0 0-2z" fill="#151a6a"/><path d="m43 13h-3a1 1 0 0 0 0 2h3a1 1 0 0 0 0-2z" fill="#151a6a"/><path d="m25 6a11 11 0 1 0 11 11 11.013 11.013 0 0 0 -11-11zm0 20a9 9 0 1 1 9-9 9.01 9.01 0 0 1 -9 9z" fill="#151a6a"/><path d="m26 12a1 1 0 0 0 -1-1 6.006 6.006 0 0 0 -6 6 1 1 0 0 0 2 0 4 4 0 0 1 4-4 1 1 0 0 0 1-1z" fill="#151a6a"/><path d="m30 16a1 1 0 0 0 -1 1 4 4 0 0 1 -4 4 1 1 0 0 0 0 2 6.006 6.006 0 0 0 6-6 1 1 0 0 0 -1-1z" fill="#151a6a"/></svg>