<svg id="line" height="512" viewBox="0 0 64 64" width="512" xmlns="http://www.w3.org/2000/svg"><g fill="#c4a2fc"><path d="m22.706 39.293a1 1 0 0 0 -1.414 0l-8 8a1 1 0 0 0 .708 1.707h3v11a3 3 0 0 0 3 3h4a3 3 0 0 0 3-3v-11h3a1 1 0 0 0 .707-1.707z"/><path d="m38.706 27.293a1 1 0 0 0 -1.414 0l-8 8a1 1 0 0 0 .708 1.707h3v23a3 3 0 0 0 3 3h4a3 3 0 0 0 3-3v-23h3a1 1 0 0 0 .707-1.707z"/><path d="m62.706 23.293-8-8a1 1 0 0 0 -1.414 0l-8 8a1 1 0 0 0 .708 1.707h3v35a3 3 0 0 0 3 3h4a3 3 0 0 0 3-3v-35h3a1 1 0 0 0 .706-1.707z"/></g><path d="m24 1a23 23 0 1 0 23 23 23.026 23.026 0 0 0 -23-23zm0 44a21 21 0 1 1 21-21 21.024 21.024 0 0 1 -21 21z" fill="#151a6a"/><path d="m24 7a17 17 0 1 0 17 17 17.019 17.019 0 0 0 -17-17zm0 32a15 15 0 1 1 15-15 15.017 15.017 0 0 1 -15 15z" fill="#151a6a"/><path d="m26.1 22.958c-.442-.156-.838-.3-1.212-.447v-6.125a4.074 4.074 0 0 1 1.84.807 1 1 0 0 0 1.351-1.475 6.072 6.072 0 0 0 -3.191-1.36v-1.358a1 1 0 1 0 -2 0v1.436a4.74 4.74 0 0 0 -3.934 3.879 4.138 4.138 0 0 0 1.346 4.078 11.777 11.777 0 0 0 2.589 1.463v7.631a5.134 5.134 0 0 1 -2.976-1.042 1 1 0 0 0 -1.095 1.674 7.129 7.129 0 0 0 4.071 1.366v1.515a1 1 0 0 0 2 0v-1.59a5.719 5.719 0 0 0 4.662-4.722 5.011 5.011 0 0 0 -3.451-5.73zm-3.212-1.311a8.07 8.07 0 0 1 -1.354-.829 2.157 2.157 0 0 1 -.614-2.131 2.7 2.7 0 0 1 1.968-2.19zm4.69 6.709a3.753 3.753 0 0 1 -2.69 3v-6.71c.18.066.353.13.545.2a3.03 3.03 0 0 1 2.149 3.51z" fill="#151a6a"/></svg>