<svg id="line" height="512" viewBox="0 0 64 64" width="512" xmlns="http://www.w3.org/2000/svg"><g fill="#c4a2fc"><path d="m60 14.5h-28a3 3 0 0 0 -3 3v42a3 3 0 0 0 3 3h28a3 3 0 0 0 3-3v-42a3 3 0 0 0 -3-3zm-14 45a2 2 0 1 1 2-2 2 2 0 0 1 -2 2zm13-8a1 1 0 0 1 -1 1h-24a1 1 0 0 1 -1-1v-32a1 1 0 0 1 1-1h24a1 1 0 0 1 1 1z"/><path d="m47 34.5h5.92a7 7 0 0 0 -5.92-5.92z"/><path d="m46 42.5a7.006 7.006 0 0 0 6.92-6h-6.92a1 1 0 0 1 -1-1v-6.92a7 7 0 0 0 1 13.92z"/><path d="m35 50.5h22v-30h-22zm11-24a9 9 0 1 1 -9 9 9.01 9.01 0 0 1 9-9z"/></g><path d="m44 1.5a4 4 0 0 0 -3.858 3h-34.142a5.006 5.006 0 0 0 -5 5v38a1.029 1.029 0 0 0 .993 1h38.007a5.006 5.006 0 0 0 5-5v-34.142a3.992 3.992 0 0 0 -1-7.858zm-41 8a3 3 0 0 1 3-3h34.142a4 4 0 0 0 1.039 1.834l-13.094 22.335a3.764 3.764 0 0 0 -2.567.122l-6.435-8.776a3.96 3.96 0 0 0 .915-2.515 4 4 0 1 0 -6.618 3l-10.382 20.764zm26 25a2 2 0 1 1 -2-2 2 2 0 0 1 2 2zm-11-15a2 2 0 1 1 -2-2 2 2 0 0 1 2 2zm25 24a3 3 0 0 1 -3 3h-36.382l11.546-23.091a3.9 3.9 0 0 0 2.315-.2l6.436 8.776a3.96 3.96 0 0 0 -.915 2.515 4 4 0 1 0 6.82-2.833l13.093-22.336c.03.008.058.019.087.027zm1-36a2 2 0 1 1 2-2 2 2 0 0 1 -2 2z" fill="#151a6a"/></svg>