<svg id="line" height="512" viewBox="0 0 64 64" width="512" xmlns="http://www.w3.org/2000/svg"><g fill="#c4a2fc"><path d="m48 45a1 1 0 0 1 -1-1v-8.941a9 9 0 1 0 9.941 9.941z"/><path d="m49 43h7.941a9.012 9.012 0 0 0 -7.941-7.941z"/><path d="m60 25h-44a3 3 0 0 0 -3 3v32a3 3 0 0 0 3 3h44a3 3 0 0 0 3-3v-32a3 3 0 0 0 -3-3zm-41 33a2 2 0 1 1 2-2 2 2 0 0 1 -2 2zm0-8a2 2 0 1 1 2-2 2 2 0 0 1 -2 2zm0-8a2 2 0 1 1 2-2 2 2 0 0 1 -2 2zm0-8a2 2 0 1 1 2-2 2 2 0 0 1 -2 2zm15 23h-10a1 1 0 0 1 0-2h10a1 1 0 0 1 0 2zm0-8h-10a1 1 0 0 1 0-2h10a1 1 0 0 1 0 2zm-2-8h-8a1 1 0 0 1 0-2h8a1 1 0 0 1 0 2zm2-8h-10a1 1 0 0 1 0-2h10a1 1 0 0 1 0 2zm14 22a11 11 0 1 1 11-11 11.013 11.013 0 0 1 -11 11z"/></g><path d="m50.945 16.6a16.989 16.989 0 0 0 -33.892.4h-1.667a17.939 17.939 0 0 0 -12.455-5h-.931a1 1 0 0 0 -.7 1.707l4.288 4.293-4.288 4.293a1 1 0 0 0 .7 1.707h.929a17.939 17.939 0 0 0 12.455-5h1.667a17.007 17.007 0 0 0 10.949 14.884l-2.96 13.842a1 1 0 0 0 .96 1.274h5a1 1 0 0 0 .961-.725l2.039-10.636 2.039 10.636a1 1 0 0 0 .961.725h5a1 1 0 0 0 .961-1.274l-2.952-13.842a17.005 17.005 0 0 0 10.936-17.284zm-46.455 5.326 3.219-3.219a1 1 0 0 0 0-1.414l-3.219-3.219a15.931 15.931 0 0 1 9.052 3.926 15.938 15.938 0 0 1 -9.052 3.926zm25.758 25.074h-2.92l2.577-12.52a16.88 16.88 0 0 0 2.79.454zm10.428 0h-2.92l-2.447-12.066a16.88 16.88 0 0 0 2.79-.454zm-6.676-14a15.006 15.006 0 0 1 -14.947-14h3a12 12 0 1 0 0-2h-3a14.991 14.991 0 1 1 14.947 16zm0-16h-4.9a5 5 0 1 1 0 2h4.9a1 1 0 0 0 0-2zm0 8a7 7 0 1 0 -6.92-8h-3.027a10 10 0 1 1 0 2h3.029a7 7 0 0 0 6.918 6z" fill="#151a6a"/></svg>