<?xml version="1.0" encoding="utf-8"?>
<!-- Generator: Adobe Illustrator 24.2.3, SVG Export Plug-In . SVG Version: 6.00 Build 0)  -->
<svg version="1.1" id="line" xmlns="http://www.w3.org/2000/svg" xmlns:xlink="http://www.w3.org/1999/xlink" x="0px" y="0px"
	 viewBox="0 0 512 512" style="enable-background:new 0 0 512 512;" xml:space="preserve">
<style type="text/css">
	.st0{fill:#BEE2FF;}
	.st1{fill:#151A6A;}
</style>
<path class="st0" d="M203.3,416l196.7-196.7l48,48L251.2,464L203.3,416z"/>
<path class="st0" d="M459.3,256l22.5-22.5c29.6-29.6,29.6-77.7,0-107.3s-77.7-29.6-107.3,0L352,148.7L459.3,256z"/>
<path class="st0" d="M144,356.7L340.6,160l48,48L191.9,404.7L144,356.7z"/>
<path class="st0" d="M119.1,434.4l-14.9,59.6c-1.1,4.3,1.5,8.6,5.8,9.7c1.3,0.3,2.6,0.3,3.9,0l59.6-14.9L119.1,434.4z"/>
<path class="st0" d="M135.1,370.4l-11.5,45.9l68,68l45.9-11.5L135.1,370.4z"/>
<g>
	<path class="st1" d="M384,8H56C29.5,8,8,29.5,8,56v288c0,26.5,21.5,48,48,48h8c13.3,0,24-10.7,24-24v-40h296c13.3,0,24-10.7,24-24
		V32C408,18.7,397.3,8,384,8z M72,368c0,4.4-3.6,8-8,8h-8c-17.7,0-32-14.3-32-32V91.7c8.8,7.9,20.2,12.3,32,12.3h8c4.4,0,8,3.6,8,8
		V368z M392,304c0,4.4-3.6,8-8,8H88V112c0-13.3-10.7-24-24-24h-8c-17.7,0-32-14.3-32-32s14.3-32,32-32h328c4.4,0,8,3.6,8,8V304z"/>
	<path class="st1" d="M248,256H144c-4.4,0-8,3.6-8,8s3.6,8,8,8h104c4.4,0,8-3.6,8-8S252.4,256,248,256z"/>
	<path class="st1" d="M336,256h-48c-4.4,0-8,3.6-8,8s3.6,8,8,8h48c4.4,0,8-3.6,8-8S340.4,256,336,256z"/>
	<path class="st1" d="M144,144h104c4.4,0,8-3.6,8-8s-3.6-8-8-8H144c-4.4,0-8,3.6-8,8S139.6,144,144,144z"/>
	<path class="st1" d="M336,128h-48c-4.4,0-8,3.6-8,8s3.6,8,8,8h48c4.4,0,8-3.6,8-8S340.4,128,336,128z"/>
	<path class="st1" d="M336,192H232c-4.4,0-8,3.6-8,8s3.6,8,8,8h104c4.4,0,8-3.6,8-8S340.4,192,336,192z"/>
	<path class="st1" d="M144,208h48c4.4,0,8-3.6,8-8s-3.6-8-8-8h-48c-4.4,0-8,3.6-8,8S139.6,208,144,208z"/>
	<path class="st1" d="M336,64H232c-4.4,0-8,3.6-8,8s3.6,8,8,8h104c4.4,0,8-3.6,8-8S340.4,64,336,64z"/>
	<path class="st1" d="M144,80h48c4.4,0,8-3.6,8-8s-3.6-8-8-8h-48c-4.4,0-8,3.6-8,8S139.6,80,144,80z"/>
</g>
</svg>
