<?xml version="1.0" encoding="utf-8"?>
<!-- Generator: Adobe Illustrator 24.2.3, SVG Export Plug-In . SVG Version: 6.00 Build 0)  -->
<svg version="1.1" id="Capa_1" xmlns="http://www.w3.org/2000/svg" xmlns:xlink="http://www.w3.org/1999/xlink" x="0px" y="0px"
	 viewBox="0 0 512 512" style="enable-background:new 0 0 512 512;" xml:space="preserve">
<style type="text/css">
	.st0{fill:#151A6A;}
	.st1{fill:#BEE2FF;}
</style>
<path class="st0" d="M3.1,139.5c1.6,3.8,5.4,6.3,9.6,6.2c4.1-0.1,7.8-2.9,9.1-6.8c1.4-3.9,0-8.3-3.1-10.9c-3.3-2.7-8.2-3-11.8-0.7
	C2.9,129.8,1.3,135.1,3.1,139.5L3.1,139.5z"/>
<path class="st0" d="M415.1,216.1c1-2.5,1.9-5,2.7-7.5c5.5-16.8,7.8-34,6.9-52.3c-1.5-30.4-15.5-59.7-39.7-82.4
	c-23.2-21.8-52.6-34.3-80.7-34.3c-41.9,0-74.7,23.4-90.5,37.4c-1.2,1-2.9,1.1-4.1,0c-16.4-14-49.9-37.4-90.2-37.4
	c-33.3,0-68.8,18-92.5,46.9c-3.5,4.3-2.9,10.6,1.4,14.1c4.3,3.5,10.6,2.9,14.1-1.4C62.5,74.7,92,59.5,119.5,59.5
	c33.9,0,62.9,20.4,77.2,32.6c8.7,7.4,21.7,7.3,30.3-0.3c13.7-12.1,41.9-32.4,77.3-32.4c45.2,0,97.8,41.8,100.4,97.7
	c0.8,15.9-1.2,30.7-5.9,45.2c-1.1,3.4-2.4,6.8-3.8,10.2c-4-0.4-8.1-0.6-12.2-0.6c-71.3,0-129.3,58.4-129.3,130.2
	c0,3.4,0.1,6.8,0.4,10.1c-9.9,8.1-17.9,14.7-24.6,20.4c-10.1,8.6-24.9,8.6-35,0c-9.1-7.7-20.9-17.3-33.4-27.5
	c-45.1-36.7-106.8-87-121.7-112.3c-9.8-16.6-15.6-31.6-18.4-47.3c-0.3-1.8-0.6-3.7-0.8-5.5c-0.7-5.5-5.7-9.3-11.2-8.6
	s-9.3,5.7-8.6,11.2c0.3,2.1,0.6,4.3,1,6.4c3.2,18.1,9.8,35.3,20.8,54c16.7,28.3,77.5,77.9,126.3,117.7
	c12.4,10.1,24.1,19.7,33.1,27.2c8.8,7.5,19.6,11.2,30.4,11.2c10.8,0,21.6-3.7,30.4-11.2c4.5-3.8,9.6-8,15.5-12.9
	c14.5,56,65.1,97.4,125.1,97.4c71.3,0,129.3-58.4,129.3-130.2C512,281.7,470.7,230.6,415.1,216.1L415.1,216.1z M382.7,452.5
	c-60.3,0-109.3-49.5-109.3-110.2S322.5,232,382.7,232C443,232,492,281.5,492,342.2C492,403,443,452.5,382.7,452.5z"/>
<path class="st1" d="M430.6,307.9h-13.7v-14c0-12.3-9.9-22.2-22.1-22.2h-24c-12.2,0-22.1,10-22.1,22.2v14h-13.7
	c-12.2,0-22.1,10-22.1,22.2v24.2c0,12.3,9.9,22.2,22.1,22.2h13.7v14c0,12.3,9.9,22.2,22.1,22.2h24c12.2,0,22.1-10,22.1-22.2v-14
	h13.7c12.2,0,22.1-10,22.1-22.2v-24.2C452.8,317.9,442.8,307.9,430.6,307.9z M432.8,354.3c0,1.2-1,2.2-2.1,2.2h-23.7
	c-5.5,0-10,4.5-10,10v24c0,1.2-1,2.2-2.1,2.2h-24c-1.2,0-2.1-1-2.1-2.2v-24c0-5.5-4.5-10-10-10h-23.7c-1.2,0-2.1-1-2.1-2.2v-24.2
	c0-1.2,1-2.2,2.1-2.2h23.7c5.5,0,10-4.5,10-10v-24c0-1.2,1-2.2,2.1-2.2h24c1.2,0,2.1,1,2.1,2.2v24c0,5.5,4.5,10,10,10h23.7
	c1.2,0,2.1,1,2.1,2.2V354.3z"/>
</svg>
