<?xml version="1.0" encoding="utf-8"?>
<!-- Generator: Adobe Illustrator 24.2.3, SVG Export Plug-In . SVG Version: 6.00 Build 0)  -->
<svg version="1.1" id="Capa_1" xmlns="http://www.w3.org/2000/svg" xmlns:xlink="http://www.w3.org/1999/xlink" x="0px" y="0px"
	 viewBox="0 0 480 480" style="enable-background:new 0 0 480 480;" xml:space="preserve">
<style type="text/css">
	.st0{fill:#BEE2FF;}
	.st1{fill:#151A6A;}
</style>
<ellipse class="st0" cx="120" cy="314.3" rx="26" ry="30.7"/>
<g>
	<g>
		<path class="st1" d="M479.4,267.6c-3.5-24.6-22.9-43.9-47.4-47.4v-14.5c0-40.1-30.5-72.8-68-72.8c-36.4,0-66.9,31.7-68,70.6h0.5
			l-0.5,0.1v157.7c0,50.4-37.7,91.3-84,91.3s-84-41-84-91.3v-13.7c11.6,0,24-8.4,24-32v-20.1c51.3-13.1,88-57.2,88-107.2v-16.7h-16
			l-0.3-104.1c-0.1-19.3-13.9-35.7-32.9-39.2c-4.1-12.5-17.6-19.4-30.1-15.3c-12.5,4.1-19.4,17.6-15.3,30.1
			c4.1,12.5,17.6,19.4,30.1,15.3c6.7-2.2,12.1-7.2,14.7-13.8c10.2,2.9,17.3,12.2,17.4,22.9l0.4,104.1h-16v16.9
			c-0.6,27.8-19.3,52-46,59.7c-14.3,4.5-29.7,4.5-44,0c-26.7-7.7-45.3-31.9-46-59.7v-16.9H32v-104c0-10.8,7.3-20.3,17.8-23.1
			C54.6,56.8,68.6,62.9,81,58.1s18.5-18.9,13.6-31.3S75.8,8.3,63.4,13.2c-6.7,2.6-11.9,8.1-14.1,15C30.1,31.5,16.1,48.1,16,67.5v104
			H0v16.6c0,50,36.7,94.1,88,107.2v20.1c0,23.6,12.4,32,24,32v13.7c0,59.2,44.9,107.3,100,107.3s100-48.2,100-107.3V203.9
			c0.8-30.4,24.1-55.1,52-55.1c28.7,0,52,25.5,52,56.8v14.5c-30.6,4.4-51.8,32.8-47.4,63.4s32.8,51.8,63.4,47.4
			S483.8,298.2,479.4,267.6z M168,43.5c-4.4,0-8-3.6-8-8s3.6-8,8-8s8,3.6,8,8S172.4,43.5,168,43.5z M72,27.5c4.4,0,8,3.6,8,8
			s-3.6,8-8,8s-8-3.6-8-8S67.6,27.5,72,27.5z M16,188.2v-0.6h24v0.9c0.6,34.8,23.7,65.1,57.1,74.9c17.5,5.5,36.3,5.5,53.7,0
			c33.4-9.8,56.5-40.1,57.2-74.9v-0.9h16v0.6c0,44.5-34.3,83.7-81.6,93.1c-11.1,2.2-22.5,2.8-33.8,1.7c-3.7-0.4-7.4-0.9-11-1.7
			C50.3,271.8,16,232.7,16,188.2z M112,331.5c-7.2,0-8-11.2-8-16v-17c0.6,0.1,1.3,0.1,1.9,0.2c0.8,0.1,1.6,0.2,2.4,0.2
			c3.8,0.3,7.6,0.6,11.4,0.6h0.4c3.8,0,7.6-0.2,11.4-0.6c0.8-0.1,1.6-0.1,2.5-0.2c0.6-0.1,1.3-0.1,1.9-0.2v17c0,4.8-0.8,16-8,16H112
			z M424,315.5c-22.1,0-40-17.9-40-40s17.9-40,40-40s40,17.9,40,40C464,297.6,446.1,315.5,424,315.5z"/>
	</g>
</g>
<g>
	<g>
		<path class="st0" d="M424,251.5c-13.3,0-24,10.7-24,24s10.7,24,24,24s24-10.7,24-24S437.3,251.5,424,251.5z M424,283.5
			c-4.4,0-8-3.6-8-8s3.6-8,8-8s8,3.6,8,8S428.4,283.5,424,283.5z"/>
	</g>
</g>
</svg>
