<?xml version="1.0" encoding="utf-8"?>
<!-- Generator: Adobe Illustrator 24.2.3, SVG Export Plug-In . SVG Version: 6.00 Build 0)  -->
<svg version="1.1" id="line" xmlns="http://www.w3.org/2000/svg" xmlns:xlink="http://www.w3.org/1999/xlink" x="0px" y="0px"
	 viewBox="0 0 375.9 479" style="enable-background:new 0 0 375.9 479;" xml:space="preserve">
<style type="text/css">
	.st0{fill:#BEE2FF;}
	.st1{fill:#151A6A;}
	.st2{fill:#2196F3;}
</style>
<g>
	<path class="st0" d="M164.9,275.7c-1.1-6.9-1.6-13.9-1.6-20.8c0-20.5,3.4-38.1,10.1-52.9c6.8-14.8,15.9-26.9,27.4-36.5
		c11.5-9.5,24.9-16.5,40.3-21.1c15.3-4.6,31.6-6.9,48.8-6.9c24.8,0,43.8,4.2,56.7,12.6c13,8.4,19.5,20.8,19.5,37.3
		c0,7.3-1.6,14.3-4.9,21.1c-3.3,6.8-6.9,11.6-11,14.5c-6.2-3.3-12.8-5.9-19.7-7.9c-6.9-2-15.3-3-25.2-3c-15.7,0-28.1,3.5-37,10.4
		c-9,6.9-13.4,18.8-13.4,35.6c0,2.9,0,5.9,0,8.8c0,2.9,0.4,5.8,1.1,8.8h71.8c1.8,4,3.8,9,6,15.1c2.2,6,3.3,12.5,3.3,19.5
		c0,13.9-2.8,23.6-8.5,29.1c-5.7,5.5-13.3,8.2-22.8,8.2h-43.9v7.1c0,20.1-5.5,37.5-16.4,52.1h121.1c2.2,4,4.3,9.1,6.3,15.3
		c2,6.2,3,13,3,20.3c0,13.2-2.9,22.6-8.8,28.2c-5.9,5.7-13.5,8.5-23,8.5H162.7c-9.5,0-17.8-3.7-24.9-11.2
		c-7.1-7.5-10.7-18.2-10.7-32.1c0-1.8,0-3.2,0-4.1c0-0.9,0.2-2.3,0.5-4.1c14.6-6.6,25.6-15.3,32.9-26.3c7.3-11,11-26.9,11-47.7v-6
		h-11.5c-9.5,0-17.1-2.7-22.7-8.2c-5.7-5.5-8.5-15.2-8.5-29.1c0-6.9,1.1-13.4,3.3-19.5c2.2-6,4.2-11,6-15.1H164.9z"/>
</g>
<path class="st1" d="M314.1,53.8C263,2.9,186.9-13.6,119.4,11.7c-4.2,1.5-6.4,6-4.9,10.2c1.5,4.2,6,6.4,10.2,4.9
	c0.1,0,0.2-0.1,0.3-0.1C211.9-5.9,308.7,38.1,341.3,125S329.8,308.7,243,341.2S59.2,329.8,26.7,242.9
	C3.5,181.2,18.6,111.7,65.2,65.1l9-9v25.9c0,4.4,3.6,8,8,8s8-3.6,8-8V36.8c0-4.4-3.6-8-8-8H36.9c-4.4,0-8,3.6-8,8s3.6,8,8,8h26l-9,9
	C-18,125.7-18,242.2,53.9,314s188.4,71.9,260.2,0C386,242.2,386,125.7,314.1,53.8L314.1,53.8z"/>
<path class="st2" d="M184,63.9c4.4,0,8-3.6,8-8v-16c0-4.4-3.6-8-8-8s-8,3.6-8,8v16C176,60.3,179.6,63.9,184,63.9z"/>
<path class="st2" d="M113.1,77.1c2.2,3.8,7.1,5.2,10.9,3c3.8-2.2,5.2-7.1,3-10.9c0,0,0-0.1-0.1-0.1l-8-13.9c-2.2-3.8-7.1-5.2-10.9-3
	c-3.8,2.2-5.2,7.1-3,10.9c0,0,0,0.1,0.1,0.1L113.1,77.1z"/>
<path class="st2" d="M77.1,113l-13.9-8c-3.8-2.2-8.7-0.8-10.9,3c-2.2,3.8-0.9,8.6,2.9,10.9l13.9,8c3.8,2.2,8.7,1,10.9-2.9
	C82.3,120.2,81.1,115.3,77.1,113C77.2,113,77.2,113,77.1,113z"/>
<path class="st2" d="M64,183.9c0-4.4-3.6-8-8-8H40c-4.4,0-8,3.6-8,8s3.6,8,8,8h16C60.4,191.9,64,188.3,64,183.9z"/>
<path class="st2" d="M63.3,262.9l13.9-8c3.8-2.2,5.2-7.1,3-10.9c-2.2-3.8-7.1-5.2-10.9-3c0,0-0.1,0-0.1,0.1l-13.9,8
	c-3.8,2.2-5.2,7.1-3,10.9C54.5,263.7,59.4,265.1,63.3,262.9C63.2,262.9,63.3,262.9,63.3,262.9z"/>
<path class="st2" d="M108,315.6c3.8,2.2,8.7,0.9,10.9-2.9l8-13.9c2.2-3.8,0.8-8.7-3-10.9c-3.8-2.2-8.6-0.9-10.9,2.9l-8,13.9
	C102.9,308.5,104.2,313.3,108,315.6z"/>
<path class="st2" d="M176,327.9c0,4.4,3.6,8,8,8s8-3.6,8-8v-16c0-4.4-3.6-8-8-8s-8,3.6-8,8V327.9z"/>
<path class="st2" d="M254.9,290.8c-2.2-3.8-7.1-5.1-10.9-2.9c-3.8,2.2-5.1,7.1-2.9,10.9l8,13.9c2.2,3.8,7.1,5.1,10.9,2.9
	c3.8-2.2,5.1-7,2.9-10.9L254.9,290.8z"/>
<path class="st2" d="M290.9,254.9l13.9,8c3.8,2.2,8.7,1,10.9-2.9c2.2-3.8,1-8.7-2.9-10.9c0,0-0.1,0-0.1-0.1l-13.9-8
	c-3.8-2.2-8.7-0.8-10.9,3C285.8,247.8,287.1,252.6,290.9,254.9z"/>
<path class="st2" d="M304,183.9c0,4.4,3.6,8,8,8h16c4.4,0,8-3.6,8-8s-3.6-8-8-8h-16C307.6,175.9,304,179.5,304,183.9z"/>
<path class="st2" d="M304.7,105l-13.9,8c-3.8,2.2-5.2,7.1-3,10.9s7.1,5.2,10.9,3c0,0,0.1,0,0.1-0.1l13.9-8c3.8-2.2,5.1-7.1,2.9-10.9
	C313.4,104.1,308.5,102.8,304.7,105z"/>
<path class="st2" d="M260,52.3c-3.8-2.2-8.7-0.9-10.9,2.9l-8,13.9c-2.2,3.8-1,8.7,2.9,10.9c3.8,2.2,8.7,1,10.9-2.9
	c0,0,0-0.1,0.1-0.1l8-13.9C265.1,59.4,263.8,54.5,260,52.3L260,52.3z"/>
<path class="st1" d="M176,183.9c0,4.4,3.6,8,8,8c1.4,0,2.8-0.4,4-1.1l69.3-40c3.8-2.2,5.1-7.1,2.9-10.9c-2.2-3.8-7.1-5.1-10.9-2.9
	L192,170.1V95.9c0-4.4-3.6-8-8-8s-8,3.6-8,8L176,183.9z"/>
</svg>
