<svg id="line" height="512" viewBox="0 0 64 64" width="512" xmlns="http://www.w3.org/2000/svg"><g fill="#c4a2fc"><path d="m24 35h8v10h-8z"/><path d="m19 57h18v-28h-18zm3-23a1 1 0 0 1 1-1h10a1 1 0 0 1 1 1v12a1 1 0 0 1 -1 1h-10a1 1 0 0 1 -1-1zm1 17h10a1 1 0 0 1 0 2h-10a1 1 0 0 1 0-2z"/><path d="m57 29h-18v28h18zm-4 24h-10a1 1 0 0 1 0-2h10a1 1 0 0 1 0 2zm0-6h-10a1 1 0 0 1 0-2h10a1 1 0 0 1 0 2zm0-6h-10a1 1 0 0 1 0-2h10a1 1 0 0 1 0 2zm0-6h-10a1 1 0 0 1 0-2h10a1 1 0 0 1 0 2z"/><path d="m37 59h-19a1 1 0 0 1 -1-1v-30a1 1 0 0 1 1-1h19v-4h-21a3 3 0 0 0 -3 3v34a3 3 0 0 0 3 3h21z"/><path d="m60 23h-21v4h19a1 1 0 0 1 1 1v30a1 1 0 0 1 -1 1h-19v4h21a3 3 0 0 0 3-3v-34a3 3 0 0 0 -3-3z"/></g><path d="m36 1h-32a3 3 0 0 0 -3 3v44a3 3 0 0 0 3 3h32a3 3 0 0 0 3-3v-44a3 3 0 0 0 -3-3zm-30 48h-2a1 1 0 0 1 -1-1v-44a1 1 0 0 1 1-1h2zm31-1a1 1 0 0 1 -1 1h-28v-46h28a1 1 0 0 1 1 1z" fill="#151a6a"/><path d="m33 10a3 3 0 0 1 -3-3 1 1 0 0 0 -1-1h-13a1 1 0 0 0 -1 1 3 3 0 0 1 -3 3 1 1 0 0 0 -1 1v9a1 1 0 0 0 1 1 3 3 0 0 1 3 3 1 1 0 0 0 1 1h13a1 1 0 0 0 1-1 3 3 0 0 1 3-3 1 1 0 0 0 1-1v-9a1 1 0 0 0 -1-1zm-1 9.1a5.013 5.013 0 0 0 -3.9 3.9h-11.2a5.013 5.013 0 0 0 -3.9-3.9v-7.2a5.013 5.013 0 0 0 3.9-3.9h11.2a5.013 5.013 0 0 0 3.9 3.9z" fill="#151a6a"/><path d="m33 29h-21a1 1 0 0 0 0 2h21a1 1 0 0 0 0-2z" fill="#151a6a"/><path d="m33 35h-21a1 1 0 0 0 0 2h21a1 1 0 0 0 0-2z" fill="#151a6a"/></svg>