<svg id="line" height="512" viewBox="0 0 64 64" width="512" xmlns="http://www.w3.org/2000/svg"><path d="m43.5 13a12.013 12.013 0 0 0 -12 12v4a12 12 0 0 0 24 0v-4a12.013 12.013 0 0 0 -12-12z" fill="#c4a2fc"/><path d="m58.148 42.494-4.319-2.956c-.746-.511-1.275.144-1.866.593a18.944 18.944 0 0 0 -6.422 8.435l-2.041 5.541-2.041-5.54a18.948 18.948 0 0 0 -6.423-8.437c-.586-.445-1.119-1.105-1.865-.592l-4.32 2.956a10 10 0 0 0 -4.351 8.252v9.254a3 3 0 0 0 3 3h4v-9a1 1 0 0 1 2 0v9h20v-9a1 1 0 0 1 2 0v9h4a3 3 0 0 0 3-3v-9.254a9.995 9.995 0 0 0 -4.352-8.252z" fill="#c4a2fc"/><path d="m42.5 39.09v-11.09a3 3 0 0 0 -3-3h-14v-10.08a7 7 0 1 0 -2 0v10.08h-14a3 3 0 0 0 -3 3v11.09a6 6 0 1 0 2 0v-11.09a1 1 0 0 1 1-1h14v12.09a6 6 0 1 0 2 0v-12.09h14a1 1 0 0 1 1 1v11.09a6 6 0 1 0 2 0zm-31 5.91a4 4 0 1 1 -4-4 4 4 0 0 1 4 4zm17 0a4 4 0 1 1 -4-4 4 4 0 0 1 4 4zm-4-32a5 5 0 1 1 5-5 5.006 5.006 0 0 1 -5 5zm17 36a4 4 0 1 1 4-4 4 4 0 0 1 -4 4z" fill="#151a6a"/></svg>