<svg id="line" height="512" viewBox="0 0 64 64" width="512" xmlns="http://www.w3.org/2000/svg"><path d="m28 23a1 1 0 0 0 1-1c0-1.586.753-2.339 1.707-3.293a6.192 6.192 0 0 0 2.293-4.707 1 1 0 0 0 -2 0c0 1.586-.753 2.339-1.707 3.293a6.2 6.2 0 0 0 -2.293 4.707 1 1 0 0 0 1 1z" fill="#c4a2fc"/><path d="m36 23a1 1 0 0 0 1-1c0-1.586.753-2.339 1.707-3.293a6.192 6.192 0 0 0 2.293-4.707 1 1 0 0 0 -2 0c0 1.586-.753 2.339-1.707 3.293a6.2 6.2 0 0 0 -2.293 4.707 1 1 0 0 0 1 1z" fill="#c4a2fc"/><path d="m44 23a1 1 0 0 0 1-1c0-1.586.753-2.339 1.707-3.293a6.192 6.192 0 0 0 2.293-4.707 1 1 0 0 0 -2 0c0 1.586-.753 2.339-1.707 3.293a6.2 6.2 0 0 0 -2.293 4.707 1 1 0 0 0 1 1z" fill="#c4a2fc"/><path d="m58 30h-3v-2a3 3 0 0 0 -3-3h-6v11h3a1 1 0 0 1 1 1v7a1 1 0 0 1 -1 1h-8a1 1 0 0 1 -1-1v-7a1 1 0 0 1 1-1h3v-11h-20a3 3 0 0 0 -3 3v28a7 7 0 0 0 7 7h20a7 7 0 0 0 7-7v-6a6 6 0 0 0 6-6v-11a3 3 0 0 0 -3-3zm1 14a4 4 0 0 1 -4 4v-16h3a1 1 0 0 1 1 1z" fill="#c4a2fc"/><g fill="#151a6a"><path d="m25 6a1 1 0 0 0 1-1v-3a1 1 0 0 0 -2 0v3a1 1 0 0 0 1 1z"/><path d="m38.848 20.913a14 14 0 1 0 -24.7 10.911 8.249 8.249 0 0 1 1.788 4.183 2 2 0 0 0 -1.936 1.993v3a2 2 0 0 0 2 2v2a3 3 0 0 0 3 3h5v2a1 1 0 0 0 2 0v-2h5a3 3 0 0 0 3-3v-2a2 2 0 0 0 2-2v-3a2 2 0 0 0 -1.931-1.993 8.167 8.167 0 0 1 1.776-4.167 13.907 13.907 0 0 0 3.003-10.927zm-6.848 24.087a1 1 0 0 1 -1 1h-12a1 1 0 0 1 -1-1v-2h14zm1-4h-17v-3h18v3zm-.95-5h-5.573l5.452-13.629a1 1 0 1 0 -1.858-.742l-5.071 12.678-5.071-12.678a1 1 0 1 0 -1.858.742l5.452 13.629h-5.573a10.247 10.247 0 0 0 -2.257-5.439 11.836 11.836 0 0 1 -2.693-7.561 12.017 12.017 0 0 1 4-8.941 11.894 11.894 0 0 1 9.373-2.983 12.075 12.075 0 0 1 10.496 10.124 11.931 11.931 0 0 1 -2.569 9.373 10.188 10.188 0 0 0 -2.25 5.427z"/><path d="m14.072 9.977a1 1 0 0 0 .128-1.409l-1.928-2.3a1 1 0 1 0 -1.533 1.285l1.929 2.3a1 1 0 0 0 1.404.124z"/><path d="m7.94 20.048a1 1 0 0 0 -.812-1.158l-2.955-.521a1 1 0 1 0 -.346 1.969l2.954.52a1 1 0 0 0 1.159-.81z"/><path d="m8.912 31.134-2.6 1.5a1 1 0 1 0 1 1.732l2.6-1.5a1 1 0 1 0 -1-1.732z"/><path d="m37.733 6.271-1.928 2.3a1 1 0 1 0 1.531 1.286l1.929-2.3a1 1 0 1 0 -1.532-1.285z"/><path d="m45.826 18.369-2.954.521a1 1 0 1 0 .348 1.968l2.954-.52a1 1 0 0 0 -.348-1.969z"/><path d="m43.687 32.634-2.6-1.5a1 1 0 0 0 -1 1.732l2.6 1.5a1 1 0 1 0 1-1.732z"/></g></svg>