<svg id="line" height="512" viewBox="0 0 64 64" width="512" xmlns="http://www.w3.org/2000/svg"><path d="m34.467 36.407a11 11 0 0 1 -3.492-1.951l-6.319 10.944a9.064 9.064 0 1 0 3.456 2.012z" fill="#c4a2fc"/><path d="m54 45a9.01 9.01 0 0 0 -8.768 7h-12.423a10.567 10.567 0 0 1 0 4h12.423a9 9 0 1 0 8.768-11z" fill="#c4a2fc"/><path d="m38 35a8.976 8.976 0 0 0 2.511-.363l6.355 11.006a11 11 0 0 1 3.463-2l-6.329-10.957a8.984 8.984 0 1 0 -6 2.314z" fill="#c4a2fc"/><g fill="#151a6a"><path d="m46 23h-21v-21a1 1 0 0 0 -1-1 23 23 0 1 0 23 23 1 1 0 0 0 -1-1zm-22 22a21 21 0 0 1 -1-41.977v20.977a1 1 0 0 0 1 1h20.977a21.026 21.026 0 0 1 -20.977 20z"/><path d="m18.7 6.794a17.921 17.921 0 0 0 -12.7 17.206 1 1 0 0 0 2 0 16.133 16.133 0 0 1 11.3-15.294 1 1 0 1 0 -.59-1.912z"/><path d="m46 15h-15a1 1 0 0 0 0 2h15a1 1 0 0 0 0-2z"/><path d="m46 9h-15a1 1 0 0 0 0 2h15a1 1 0 0 0 0-2z"/><path d="m31 5h15a1 1 0 0 0 0-2h-15a1 1 0 0 0 0 2z"/></g></svg>