<?xml version="1.0"?>
<svg xmlns="http://www.w3.org/2000/svg" id="line" width="512" height="512" viewBox="0 0 64 64"><path d="M61,34H57.593a21.015,21.015,0,0,0-3.2-7.734L56.8,23.857a1,1,0,0,0,0-1.414L52.557,18.2a1,1,0,0,0-1.414,0l-2.409,2.408A21.015,21.015,0,0,0,41,17.407V14a1,1,0,0,0-1-1H34a1,1,0,0,0-1,1v3.407a21.015,21.015,0,0,0-7.734,3.2L22.857,18.2a1,1,0,0,0-1.414,0L17.2,22.443a1,1,0,0,0,0,1.414l2.408,2.409A21.015,21.015,0,0,0,16.407,34H13a1,1,0,0,0-1,1v6a1,1,0,0,0,1,1h3.407a21.015,21.015,0,0,0,3.2,7.734L17.2,52.143a1,1,0,0,0,0,1.414L21.443,57.8a1,1,0,0,0,1.414,0l2.409-2.408A21.015,21.015,0,0,0,33,58.593V62a1,1,0,0,0,1,1h6a1,1,0,0,0,1-1V58.593a21.015,21.015,0,0,0,7.734-3.2L51.143,57.8a1,1,0,0,0,1.414,0L56.8,53.557a1,1,0,0,0,0-1.414l-2.408-2.409A21.015,21.015,0,0,0,57.593,42H61a1,1,0,0,0,1-1V35A1,1,0,0,0,61,34ZM36,50.449A12.506,12.506,0,0,1,24.551,39H30.08A7,7,0,0,0,36,44.92ZM36,31.08A7,7,0,0,0,30.08,37H24.551A12.506,12.506,0,0,1,36,25.551Zm2,19.369V44.92A7,7,0,0,0,43.92,39h5.529A12.506,12.506,0,0,1,38,50.449ZM43.92,37A7,7,0,0,0,38,31.08V25.551A12.506,12.506,0,0,1,49.449,37Z" style="fill:#c4a2fc"/><path d="M21,29A12.013,12.013,0,0,0,33,17V13A12,12,0,0,0,9,13v4A12.013,12.013,0,0,0,21,29ZM31,12.967C26.479,12.69,22,10.492,22,5V3.051A10.012,10.012,0,0,1,31,12.967ZM20,3.051V5c0,5.492-4.479,7.69-9,7.967A10.012,10.012,0,0,1,20,3.051ZM11,14.966c4.811-.248,8.368-2.287,10-5.555,1.632,3.268,5.189,5.307,10,5.555V17a10,10,0,0,1-20,0Z" style="fill:#151a6a"/><path d="M31.329,27.538a1,1,0,0,0-1.07-.037A29.176,29.176,0,0,0,21,36.321a29.284,29.284,0,0,0-9.259-8.82,1,1,0,0,0-1.07.037C8.656,29.375,2,31.514,2,38.746V48a3,3,0,0,0,3,3H37a3,3,0,0,0,3-3V38.746C40,31.52,33.331,29.363,31.329,27.538ZM4,48V38.746c0-5.831,5.518-7.615,7.27-9.194,5.431,3.368,7.646,7.5,8.73,8.779V49H5A1,1,0,0,1,4,48Zm34,0a1,1,0,0,1-1,1H22V38.331c1.191-1.406,3.34-5.436,8.73-8.779C32.523,31.168,38,32.91,38,38.746Z" style="fill:#151a6a"/><path d="M21,24a4,4,0,0,0,4-4,1,1,0,0,0-2,0,2,2,0,0,1-4,0,1,1,0,0,0-2,0A4,4,0,0,0,21,24Z" style="fill:#151a6a"/><path d="M15,40H9a1,1,0,0,0,0,2h6a1,1,0,0,0,0-2Z" style="fill:#151a6a"/></svg>
