<svg id="line" height="512" viewBox="0 0 64 64" width="512" xmlns="http://www.w3.org/2000/svg"><path d="m26 47v-22h-10a3 3 0 0 0 -3 3v24a3 3 0 0 0 3 3h1v7a1 1 0 0 0 1.707.707l7.707-7.707h18.586a3 3 0 0 0 3-3h-17a5.006 5.006 0 0 1 -5-5z" fill="#c4a2fc"/><path d="m60 20h-29a3 3 0 0 0 -3 3v24a3 3 0 0 0 3 3h18.586l7.707 7.707a1 1 0 0 0 1.707-.707v-7h1a3 3 0 0 0 3-3v-24a3 3 0 0 0 -3-3zm-25 17a2 2 0 1 1 2-2 2 2 0 0 1 -2 2zm7 0a2 2 0 1 1 2-2 2 2 0 0 1 -2 2zm7 0a2 2 0 1 1 2-2 2 2 0 0 1 -2 2zm7 0a2 2 0 1 1 2-2 2 2 0 0 1 -2 2z" fill="#c4a2fc"/><g fill="#151a6a"><path d="m45.515 35.145a1 1 0 0 0 -1.231-.707l-4.093 1.1a1 1 0 0 0 .518 1.932l1.766-.473-.293.507a20.989 20.989 0 0 1 -28.682 7.683 21.455 21.455 0 0 1 -2.3-1.542 1 1 0 0 0 -1.217 1.587 23.255 23.255 0 0 0 2.517 1.687 23.012 23.012 0 0 0 31.415-8.419l.292-.507.473 1.766a1 1 0 1 0 1.932-.518z"/><path d="m24 4h-.59l1.29-1.293a1 1 0 1 0 -1.414-1.414l-3 3a1 1 0 0 0 0 1.414l3 3a1 1 0 1 0 1.414-1.414l-1.29-1.293h.59a20.966 20.966 0 0 1 20.809 23.76 1 1 0 0 0 1.983.262 22.967 22.967 0 0 0 -22.792-26.022z"/><path d="m13.5 8.813a21.312 21.312 0 0 1 2.48-1.213 1 1 0 1 0 -.767-1.848 23.328 23.328 0 0 0 -2.713 1.329 23.026 23.026 0 0 0 -8.423 31.419l.293.507-1.77-.473a1 1 0 1 0 -.518 1.932l4.1 1.1a1.014 1.014 0 0 0 1.219-.7v-.009l1.1-4.1a1 1 0 0 0 -1.932-.518l-.469 1.768-.291-.507a20.989 20.989 0 0 1 7.691-28.687z"/><path d="m11.992 27a12 12 0 1 0 12-12 12.015 12.015 0 0 0 -12 12zm12-10a10 10 0 1 1 -10 10 10.013 10.013 0 0 1 10.002-10z"/><path d="m19.043 23.467a1 1 0 0 0 1.414 0 5.008 5.008 0 0 1 7.074 0 1 1 0 0 0 1.414-1.414 7.01 7.01 0 0 0 -9.9 0 1 1 0 0 0 -.002 1.414z"/><path d="m19.043 30.541a1 1 0 0 0 0 1.414 7.01 7.01 0 0 0 9.9 0 1 1 0 1 0 -1.414-1.415 5.007 5.007 0 0 1 -7.074 0 1 1 0 0 0 -1.412.001z"/></g></svg>