<svg id="line" height="512" viewBox="0 0 64 64" width="512" xmlns="http://www.w3.org/2000/svg"><g fill="#c4a2fc"><path d="m37.293 36.707-14.142-14.142a1 1 0 0 1 0-1.414 20.864 20.864 0 0 1 14.849-6.151 1 1 0 0 1 1 1v20a1 1 0 0 1 -1.707.707z"/><path d="m23.151 27.151a1 1 0 0 1 1.414 0l14.142 14.142a1 1 0 0 1 .293.707v20a1 1 0 0 1 -1 1 21 21 0 0 1 -14.849-35.849z"/><path d="m42 21a1 1 0 0 0 -1 1v40a1 1 0 0 0 1 1 21 21 0 0 0 0-42zm12.728 33.728a1 1 0 0 1 -1.414-1.415 16.018 16.018 0 0 0 0-22.627 1 1 0 0 1 1.414-1.414 18.021 18.021 0 0 1 0 25.456z"/></g><path d="m26 1a25 25 0 1 0 25 25 25.028 25.028 0 0 0 -25-25zm1 2.025a22.913 22.913 0 0 1 14.532 6.029l-6.378 6.378a13.919 13.919 0 0 0 -8.154-3.381zm-2 45.95a23 23 0 0 1 0-45.95v3.026a19.973 19.973 0 0 0 0 39.9zm0-5.026a17.975 17.975 0 0 1 0-35.9v4a13.984 13.984 0 0 0 0 27.9zm-11-17.949a12 12 0 1 1 12 12 12.013 12.013 0 0 1 -12-12zm13 22.975v-9.026a13.967 13.967 0 0 0 9.568-23.1l6.378-6.378a22.983 22.983 0 0 1 -15.946 38.504z" fill="#151a6a"/></svg>