<svg id="line" height="512" viewBox="0 0 64 64" width="512" xmlns="http://www.w3.org/2000/svg"><g fill="#c4a2fc"><path d="m23 49h30v-18h-30zm10-16h17a1 1 0 0 1 0 2h-17a1 1 0 0 1 0-2zm0 4h17a1 1 0 0 1 0 2h-17a1 1 0 0 1 0-2zm0 4h17a1 1 0 0 1 0 2h-17a1 1 0 0 1 0-2zm0 4h17a1 1 0 0 1 0 2h-17a1 1 0 0 1 0-2zm-7-12h3a1 1 0 0 1 0 2h-3a1 1 0 0 1 0-2zm0 4h3a1 1 0 0 1 0 2h-3a1 1 0 0 1 0-2zm0 4h3a1 1 0 0 1 0 2h-3a1 1 0 0 1 0-2zm0 4h3a1 1 0 0 1 0 2h-3a1 1 0 0 1 0-2z"/><path d="m56 25h-36a3 3 0 0 0 -3 3v26a1 1 0 0 0 1 1h40a1 1 0 0 0 1-1v-26a3 3 0 0 0 -3-3zm-1 25a1 1 0 0 1 -1 1h-32a1 1 0 0 1 -1-1v-20a1 1 0 0 1 1-1h32a1 1 0 0 1 1 1z"/><path d="m14 57h48a1 1 0 0 1 1 1 5 5 0 0 1 -5 5h-40a5 5 0 0 1 -5-5 1 1 0 0 1 1-1z"/></g><path d="m50.408 11.091c-.008 0-.014-.01-.022-.013l-24-10a1 1 0 0 0 -.77 0c-.1.042-24.124 10.06-24.023 10.014a1.043 1.043 0 0 0 -.593.908v28a1 1 0 0 0 .615.923l23.994 10a1 1 0 0 0 .77 0l23.994-10a1 1 0 0 0 .627-.923v-28a1.039 1.039 0 0 0 -.592-.909zm-12.108-2.883-21.4 8.917-3.2-1.333 21.4-8.917zm-22.431 10.654v7.838l-3.762-1.567v-7.839zm10.131-15.779 6.5 2.709-21.4 8.917-6.5-2.709zm-1 45.417-22-9.167v-25.833l7.107 2.961v9.339a1 1 0 0 0 .615.923l5.762 2.4a1 1 0 0 0 1.385-.923v-8.5l7.131 2.967zm1-27.583-6.5-2.708 21.4-8.918 6.5 2.709zm23 18.416-22 9.167v-25.833l22-9.167z" fill="#151a6a"/><path d="m13.385 33.66-7-2.917a1 1 0 0 0 -1.385.923v5a1 1 0 0 0 .615.923l7 2.917a1 1 0 0 0 1.385-.923v-5a1 1 0 0 0 -.615-.923zm-1.385 4.423-5-2.083v-2.834l5 2.084z" fill="#151a6a"/></svg>