<?xml version="1.0"?>
<svg xmlns="http://www.w3.org/2000/svg" id="line" width="512" height="512" viewBox="0 0 64 64"><path d="M62.124,35.008l-3.419-.427a20.889,20.889,0,0,0-1.05-3.982l2.733-2.07a1,1,0,0,0,.262-1.3l-2-3.464a1,1,0,0,0-1.254-.421l-3.182,1.342a21.014,21.014,0,0,0-2.9-2.9L52.653,18.6a1,1,0,0,0-.421-1.255l-3.464-2a1,1,0,0,0-1.3.263L45.4,18.345A20.953,20.953,0,0,0,41.42,17.3l-.428-3.419A1,1,0,0,0,40,13H36a1,1,0,0,0-.992.876L34.58,17.3a20.953,20.953,0,0,0-3.981,1.05l-2.07-2.733a1,1,0,0,0-1.3-.263l-3.464,2a1,1,0,0,0-.421,1.255l1.342,3.182a21.07,21.07,0,0,0-2.9,2.9L18.6,23.347a1,1,0,0,0-1.255.421l-2,3.464a1,1,0,0,0,.263,1.3l2.733,2.07a20.963,20.963,0,0,0-1.05,3.982l-3.419.427A1,1,0,0,0,13,36v4a1,1,0,0,0,.876.992l3.419.427a20.963,20.963,0,0,0,1.05,3.982l-2.733,2.07a1,1,0,0,0-.263,1.3l2,3.464a1,1,0,0,0,1.255.421l3.182-1.342a21.07,21.07,0,0,0,2.9,2.9L23.347,57.4a1,1,0,0,0,.421,1.255l3.464,2a1,1,0,0,0,1.3-.263l2.07-2.733a20.953,20.953,0,0,0,3.981,1.05l.428,3.419A1,1,0,0,0,36,63h4a1,1,0,0,0,.992-.876l.428-3.419a20.953,20.953,0,0,0,3.981-1.05l2.069,2.733a1,1,0,0,0,1.3.263l3.464-2a1,1,0,0,0,.421-1.255l-1.342-3.182a21.014,21.014,0,0,0,2.9-2.9L57.4,52.653a1,1,0,0,0,1.254-.421l2-3.464a1,1,0,0,0-.262-1.3L57.655,45.4a20.889,20.889,0,0,0,1.05-3.982l3.419-.427A1,1,0,0,0,63,40V36A1,1,0,0,0,62.124,35.008ZM27,38A11,11,0,1,1,38,49,11.013,11.013,0,0,1,27,38ZM38,56a1,1,0,0,1,0-2A16.019,16.019,0,0,0,54,38a1,1,0,0,1,2,0A18.021,18.021,0,0,1,38,56Z" style="fill:#c4a2fc"/><path d="M24,1A23,23,0,1,0,47,24,23.026,23.026,0,0,0,24,1Zm0,44A21,21,0,1,1,45,24,21.023,21.023,0,0,1,24,45Z" style="fill:#151a6a"/><path d="M24,6A18,18,0,1,0,42,24,18.023,18.023,0,0,0,24,6ZM35.982,34.568l-.669-.669A1,1,0,0,0,33.9,35.313l.669.669A15.915,15.915,0,0,1,25,39.949V39a1,1,0,0,0-2,0v.949a15.915,15.915,0,0,1-9.568-3.967l.669-.669A1,1,0,0,0,12.687,33.9l-.669.669A15.915,15.915,0,0,1,8.051,25H9a1,1,0,0,0,0-2H8.051a15.915,15.915,0,0,1,3.967-9.568l.669.669A1,1,0,0,0,14.1,12.687l-.669-.669A15.915,15.915,0,0,1,23,8.051V9a1,1,0,0,0,2,0V8.051a15.915,15.915,0,0,1,9.568,3.967l-.669.669A1,1,0,0,0,35.313,14.1l.669-.669A15.915,15.915,0,0,1,39.949,23H39a1,1,0,0,0,0,2h.949A15.915,15.915,0,0,1,35.982,34.568Z" style="fill:#151a6a"/><path d="M24,13a1,1,0,0,0-1,1v9H15a1,1,0,0,0,0,2h9a1,1,0,0,0,1-1V14A1,1,0,0,0,24,13Z" style="fill:#151a6a"/></svg>
