<svg id="line" height="512" viewBox="0 0 64 64" width="512" xmlns="http://www.w3.org/2000/svg"><path d="m42.624 32.378 2.82-12.214a12.973 12.973 0 0 0 -13.444 18.855z" fill="#c4a2fc"/><path d="m45.632 34.524 5.582 8.932a12.937 12.937 0 0 0 4.686-6.562z" fill="#c4a2fc"/><path d="m44.7 32.257 11.643 2.688a13 13 0 0 0 -8.955-14.331z" fill="#c4a2fc"/><path d="m59.5 13h-32a3 3 0 0 0 -3 3v37h27a3 3 0 0 1 3 3v.822a4.12 4.12 0 0 0 3.6 4.158 4 4 0 0 0 4.4-3.98v-41a3 3 0 0 0 -3-3zm-16 35a15 15 0 1 1 15-15 15.019 15.019 0 0 1 -15 15z" fill="#c4a2fc"/><path d="m43.187 34.384-10.131 6.331a12.938 12.938 0 0 0 16.462 3.8z" fill="#c4a2fc"/><path d="m52.5 57v-1a1 1 0 0 0 -1-1h-32a3 3 0 0 0 -3 3 5 5 0 0 0 5 5h37a6.006 6.006 0 0 1 -6-6z" fill="#c4a2fc"/><g fill="#151a6a"><path d="m28.937 5.97a1 1 0 0 0 1.115-.87l.365-2.979a1 1 0 0 0 -1.985-.244l-.366 2.978a1 1 0 0 0 .871 1.115z"/><path d="m24.063 45.671a1.006 1.006 0 0 0 -1.115.871l-.365 2.978a1 1 0 1 0 1.985.244l.366-2.978a1 1 0 0 0 -.871-1.115z"/><path d="m24.063 5.97a1 1 0 0 0 .871-1.115l-.366-2.978a1 1 0 0 0 -1.985.244l.365 2.979a1 1 0 0 0 1.115.87z"/><path d="m28.937 45.671a1 1 0 0 0 -.871 1.115l.366 2.978a1 1 0 1 0 1.985-.244l-.365-2.978a1.006 1.006 0 0 0 -1.115-.871z"/><path d="m18.041 6.574a1 1 0 0 0 1.867-.717l-1.075-2.8a1 1 0 0 0 -1.868.716z"/><path d="m34.959 45.067a1 1 0 1 0 -1.867.717l1.075 2.8a1 1 0 0 0 1.868-.717z"/><path d="m33.667 7.149a1 1 0 0 0 1.292-.575l1.076-2.8a1 1 0 1 0 -1.868-.716l-1.075 2.8a1 1 0 0 0 .575 1.291z"/><path d="m19.333 44.492a1 1 0 0 0 -1.292.575l-1.076 2.8a1 1 0 0 0 1.868.717l1.075-2.8a1 1 0 0 0 -.575-1.292z"/><path d="m51.4 25.373c-.343-.673-8.471-16.552-24.9-16.552s-24.557 15.879-24.895 16.552a1.006 1.006 0 0 0 0 .895c.338.676 8.466 16.553 24.9 16.553s24.552-15.877 24.895-16.553a1.006 1.006 0 0 0 0-.895zm-24.9 15.448c-13.7 0-21.429-12.459-22.862-15 1.433-2.541 9.163-15 22.862-15s21.429 12.459 22.862 15c-1.433 2.541-9.162 15-22.862 15z"/><path d="m26.5 13.821a12 12 0 1 0 12 12 12.013 12.013 0 0 0 -12-12zm0 22a10 10 0 1 1 10-10 10.011 10.011 0 0 1 -10 10z"/><path d="m26.5 18.821a7 7 0 1 0 7 7 7.008 7.008 0 0 0 -7-7zm0 12a5 5 0 1 1 5-5 5.006 5.006 0 0 1 -5 5z"/></g></svg>